<svg width="6" height="10" viewBox="0 0 6 10" fill="none" xmlns="http://www.w3.org/2000/svg">
<path d="M4.89858 0.0585022C4.72898 0.143301 0.281427 4.59671 0.220021 4.74291C0.158615 4.89496 0.164463 5.13182 0.234641 5.2751C0.316516 5.44469 4.76992 9.89225 4.91905 9.95658C5.04771 10.0092 5.24655 10.0151 5.38398 9.96828C5.69978 9.86008 5.86938 9.54428 5.79043 9.20509C5.75534 9.05303 5.73195 9.02672 3.73186 7.02371L1.71131 5.00023L3.72017 2.98845C5.12374 1.58488 5.74365 0.94743 5.77581 0.871403C5.90155 0.567296 5.76411 0.210555 5.46293 0.0555782C5.31673 -0.0204487 5.05356 -0.0175247 4.89858 0.0585022Z" fill="#121212"/>
</svg>
