<svg width="8" height="10" viewBox="0 0 8 10" fill="none" xmlns="http://www.w3.org/2000/svg">
<line x1="0.777689" y1="0.6" x2="0.777688" y2="9.4" stroke="#121212" stroke-width="1.2" stroke-linecap="round"/>
<path d="M6.89858 0.0585022C6.72898 0.143301 2.28143 4.59671 2.22002 4.74291C2.15861 4.89496 2.16446 5.13182 2.23464 5.2751C2.31652 5.44469 6.76992 9.89225 6.91905 9.95658C7.04771 10.0092 7.24655 10.0151 7.38398 9.96828C7.69978 9.86008 7.86938 9.54428 7.79043 9.20509C7.75534 9.05303 7.73195 9.02672 5.73186 7.02371L3.71131 5.00023L5.72017 2.98845C7.12374 1.58488 7.74365 0.94743 7.77581 0.871403C7.90155 0.567296 7.76411 0.210555 7.46293 0.0555782C7.31673 -0.0204487 7.05356 -0.0175247 6.89858 0.0585022Z" fill="#121212"/>
</svg>
