<svg width="20" height="20" viewBox="0 0 20 20" fill="none" xmlns="http://www.w3.org/2000/svg">
<path d="M9.10152 0.703112C7.44527 1.05858 6.17573 2.26952 5.74214 3.90624C5.61323 4.39842 5.5898 5.35155 5.69527 5.85936C6.05073 7.56249 7.23823 8.80858 8.93355 9.26171C9.39839 9.38671 10.3593 9.41014 10.8593 9.30467C12.6289 8.93358 13.9335 7.63671 14.3007 5.87889C14.457 5.12889 14.3828 4.1953 14.1015 3.42577C13.6015 2.05467 12.3671 1.01171 10.8789 0.699205C10.4062 0.601549 9.56636 0.601549 9.10152 0.703112ZM10.8789 2.03124C11.746 2.30077 12.4257 2.89452 12.8046 3.71092C13.0078 4.14452 13.0859 4.5078 13.0859 5.0117C13.0859 6.18749 12.4335 7.23827 11.3867 7.7578C10.9101 7.99217 10.5195 8.08592 10.0117 8.08592C9.50777 8.08592 9.14448 8.0078 8.71089 7.80467C8.05073 7.49999 7.56245 7.02733 7.24214 6.38671C7.00777 5.91014 6.91402 5.51952 6.91402 5.0117C6.91402 4.48045 6.99605 4.1328 7.22652 3.65233C7.55464 2.98045 7.98042 2.55467 8.6523 2.22655C9.37495 1.87499 10.1484 1.80858 10.8789 2.03124Z" fill="#121212"/>
<path d="M5.35153 10.7031C3.61716 11.0742 2.30466 12.3906 1.9531 14.1016C1.87888 14.4531 1.87107 14.6016 1.88669 15.1367C1.91013 15.8516 1.97653 16.1914 2.21872 16.75C2.74607 17.9726 3.81638 18.8906 5.15622 19.2617L5.48825 19.3555L9.87107 19.3672C14.1406 19.375 14.2656 19.375 14.6445 19.2969C16.3554 18.9492 17.6953 17.6094 18.0468 15.8945C18.1562 15.3633 18.1406 14.4219 18.0156 13.9219C17.6211 12.3789 16.3945 11.1523 14.8281 10.7305C14.5117 10.6484 14.4961 10.6484 10.0976 10.6367C5.94138 10.6289 5.66403 10.6328 5.35153 10.7031ZM14.4883 11.9844C15.1133 12.1523 15.7343 12.543 16.1406 13.0312C16.3828 13.3203 16.6953 13.957 16.7734 14.3242C16.8515 14.6836 16.8515 15.3164 16.7734 15.6758C16.6953 16.043 16.3828 16.6797 16.1406 16.9687C15.7265 17.4648 15.1054 17.8555 14.4687 18.0156L14.1211 18.1055H10.0195C5.35153 18.1055 5.62107 18.1211 4.90232 17.7734C4.23044 17.4453 3.80466 17.0195 3.47653 16.3476C3.24607 15.8711 3.16403 15.5195 3.16403 14.9922C3.16403 14.1211 3.47653 13.3867 4.10544 12.7734C4.60153 12.2891 5.24216 11.9922 5.957 11.9141C6.10935 11.8984 8.0156 11.8867 10.1953 11.8906C14.1484 11.8984 14.1601 11.8984 14.4883 11.9844Z" fill="#121212"/>
</svg>
